<?xml version="1.0" encoding="utf-8"?>
<!-- Generator: Adobe Illustrator 28.3.0, SVG Export Plug-In . SVG Version: 6.00 Build 0)  -->
<svg version="1.1" id="Layer_1" xmlns="http://www.w3.org/2000/svg" xmlns:xlink="http://www.w3.org/1999/xlink" x="0px" y="0px"
	 viewBox="0 0 800 800" style="enable-background:new 0 0 800 800;" xml:space="preserve">
<style type="text/css">
	.st0{fill:#FFFFFF;}
</style>
<path class="st0" d="M645.3,0H154.7C69.4,0,0,69.4,0,154.7v163.4v327.5c0,85.3,69.4,154.7,154.7,154.7h490.6
	c85.3,0,154.7-69.4,154.7-154.7V317.8V154.4C799.7,69.4,730.3,0,645.3,0z M689.7,92.2h17.8v17.5v118.1l-135.3,0.3l-0.3-135.6
	L689.7,92.2z M285.6,317.8c25.6-35.3,67.2-58.7,114.1-58.7s88.4,23.1,114.1,58.7c16.9,23.1,26.6,51.6,26.6,82.2
	c0,77.5-63.1,140.9-140.9,140.9S259.1,477.5,259.1,400C259.1,369.4,269.1,340.9,285.6,317.8z M721.9,645.3
	c0,42.2-34.4,76.6-76.6,76.6H154.7c-42.2,0-76.6-34.4-76.6-76.6V317.8h119.4c-10.3,25.3-16.2,53.1-16.2,82.2
	c0,120.6,98.1,218.8,218.8,218.8S618.8,520.6,618.8,400c0-29.1-5.9-56.9-16.2-82.2h119.4V645.3z"/>
</svg>
